version 1
nodes
0 "root" -1
end
skeleton
time 0
0 0.000000 0.000000 0.000000 0.000000 0.000000 0.000000
end
triangles
debugwhite
0 -28.942500 -19.012500 0.000000 0.000000 -1.000000 0.000000 0.000000 0.000000
0 30.112500 -19.012500 0.000000 0.000000 -1.000000 0.000000 0.000000 0.000000
0 30.112500 -19.012500 27.067500 0.000000 -1.000000 0.000000 0.000000 0.000000
debugwhite
0 -28.942500 -19.012500 0.000000 0.000000 -1.000000 0.000000 0.000000 0.000000
0 30.112500 -19.012500 27.067500 0.000000 -1.000000 0.000000 0.000000 0.000000
0 -28.942500 -19.012500 27.067500 0.000000 -1.000000 0.000000 0.000000 0.000000
debugwhite
0 -28.942500 13.477500 0.000000 0.000000 1.000000 0.000000 0.000000 0.000000
0 -28.942500 13.477500 27.067500 0.000000 1.000000 0.000000 0.000000 0.000000
0 30.112500 13.477500 27.067500 0.000000 1.000000 0.000000 0.000000 0.000000
debugwhite
0 -28.942500 13.477500 0.000000 0.000000 1.000000 0.000000 0.000000 0.000000
0 30.112500 13.477500 27.067500 0.000000 1.000000 0.000000 0.000000 0.000000
0 30.112500 13.477500 0.000000 0.000000 1.000000 0.000000 0.000000 0.000000
debugwhite
0 30.112500 13.477500 0.000000 1.000000 0.000000 0.000000 0.000000 0.000000
0 30.112500 13.477500 27.067500 1.000000 0.000000 0.000000 0.000000 0.000000
0 30.112500 -19.012500 27.067500 1.000000 0.000000 0.000000 0.000000 0.000000
debugwhite
0 30.112500 13.477500 0.000000 1.000000 0.000000 0.000000 0.000000 0.000000
0 30.112500 -19.012500 27.067500 1.000000 0.000000 0.000000 0.000000 0.000000
0 30.112500 -19.012500 0.000000 1.000000 0.000000 0.000000 0.000000 0.000000
debugwhite
0 -28.942500 13.477500 0.000000 -1.000000 0.000000 0.000000 0.000000 0.000000
0 -28.942500 -19.012500 0.000000 -1.000000 0.000000 0.000000 0.000000 0.000000
0 -28.942500 -19.012500 27.067500 -1.000000 0.000000 0.000000 0.000000 0.000000
debugwhite
0 -28.942500 13.477500 0.000000 -1.000000 0.000000 0.000000 0.000000 0.000000
0 -28.942500 -19.012500 27.067500 -1.000000 0.000000 0.000000 0.000000 0.000000
0 -28.942500 13.477500 27.067500 -1.000000 0.000000 0.000000 0.000000 0.000000
debugwhite
0 -28.942500 13.477500 27.067500 0.000000 0.000000 1.000000 0.000000 0.000000
0 -28.942500 -19.012500 27.067500 0.000000 0.000000 1.000000 0.000000 0.000000
0 30.112500 -19.012500 27.067500 0.000000 0.000000 1.000000 0.000000 0.000000
debugwhite
0 -28.942500 13.477500 27.067500 0.000000 0.000000 1.000000 0.000000 0.000000
0 30.112500 -19.012500 27.067500 0.000000 0.000000 1.000000 0.000000 0.000000
0 30.112500 13.477500 27.067500 0.000000 0.000000 1.000000 0.000000 0.000000
debugwhite
0 -28.942500 13.477500 0.000000 0.000000 0.000000 -1.000000 0.000000 0.000000
0 30.112500 13.477500 0.000000 0.000000 0.000000 -1.000000 0.000000 0.000000
0 30.112500 -19.012500 0.000000 0.000000 0.000000 -1.000000 0.000000 0.000000
debugwhite
0 -28.942500 13.477500 0.000000 0.000000 0.000000 -1.000000 0.000000 0.000000
0 30.112500 -19.012500 0.000000 0.000000 0.000000 -1.000000 0.000000 0.000000
0 -28.942500 -19.012500 0.000000 0.000000 0.000000 -1.000000 0.000000 0.000000
end
